<?xml version="1.0" standalone="no"?>
<!DOCTYPE svg PUBLIC "-//W3C//DTD SVG 20010904//EN"
 "http://www.w3.org/TR/2001/REC-SVG-20010904/DTD/svg10.dtd">
<svg version="1.0" xmlns="http://www.w3.org/2000/svg"
 width="221.000000pt" height="228.000000pt" viewBox="0 0 221.000000 228.000000"
 preserveAspectRatio="xMidYMid meet">

<g transform="translate(0.000000,228.000000) scale(0.100000,-0.100000)"
fill="#000000" stroke="none">
<path d="M715 1660 c-100 -12 -225 -36 -288 -56 -76 -25 -107 -95 -73 -162 31
-60 65 -63 246 -22 123 27 391 38 551 21 213 -22 406 -74 561 -152 87 -44 124
-48 160 -19 66 51 59 140 -15 187 -118 75 -364 156 -577 188 -124 19 -452 28
-565 15z"/>
<path d="M715 1279 c-98 -13 -235 -47 -261 -64 -33 -21 -49 -77 -32 -112 23
-47 57 -60 125 -45 165 37 226 44 373 44 240 1 423 -39 629 -138 62 -29 122
-54 131 -54 10 0 32 12 49 26 40 34 44 92 7 129 -62 62 -337 169 -516 200
-113 20 -404 28 -505 14z"/>
<path d="M755 919 c-110 -12 -236 -38 -262 -54 -43 -28 -42 -92 2 -121 24 -16
31 -16 103 -1 324 68 617 41 850 -79 94 -48 116 -52 150 -28 31 21 31 83 -1
112 -37 35 -205 109 -308 136 -166 43 -345 55 -534 35z"/>
</g>
</svg>
